<?xml version="1.0" encoding="utf-8"?>
<!-- Generator: Adobe Illustrator 19.1.0, SVG Export Plug-In . SVG Version: 6.00 Build 0)  -->
<svg version="1.1" id="圖層_1" xmlns="http://www.w3.org/2000/svg" xmlns:xlink="http://www.w3.org/1999/xlink" x="0px" y="0px"
	 viewBox="-232 452 93.3 144.6" style="enable-background:new -232 452 93.3 144.6;" xml:space="preserve">
<style type="text/css">
	.st0{fill:#FFFFFF;}
</style>
<path class="st0" d="M-172,456.2h-24.1v49.4h-4.3v-49.4h-24.7V452h53.1V456.2z"/>
<path class="st0" d="M-171.5,522.4h-54.1v-4.5h54.1V522.4z"/>
<path class="st0" d="M-173.5,590.9l-3.8,2.1c-1.3-2.9-2.6-5.4-3.8-7.5c-15.2,1.3-29.1,2.1-41.8,2.5l-0.7-4c5.2-0.2,8.3-0.3,9.4-0.4
	c7-7.9,12.2-14.3,15.7-19.4c-8.9,0.1-16.8,0.1-23.7-0.1l-0.5-4.3c1,0.2,1.9,0.2,2.6,0.2c7.8-9.7,13.9-18.3,18.4-26.1l3.6,2.1
	c-4.9,8-10.4,16-16.6,24c3.3,0.1,6.8,0.2,10.5,0.2c2.8,0,5.7,0,8.5-0.1c3.1-4.4,6-9.2,8.7-14.5l3.8,1.8c-5,10-13.4,21.9-25.2,35.6
	c10.3-0.4,18.6-1,24.9-1.7c-1.8-2.9-3.8-5.8-5.9-8.9l3.5-2C-180.4,578-176.3,584.7-173.5,590.9z"/>
<path class="st0" d="M-143.4,531.9h-5.1l-18.3-27.6h6.8L-143.4,531.9z"/>
</svg>
